<?xml version="1.0" encoding="iso-8859-1"?>
<!-- Generator: Adobe Illustrator 19.0.0, SVG Export Plug-In . SVG Version: 6.00 Build 0)  -->
<svg version="1.1" id="Capa_1" xmlns="http://www.w3.org/2000/svg" xmlns:xlink="http://www.w3.org/1999/xlink" x="0px" y="0px"
	 viewBox="0 0 512 512" style="enable-background:new 0 0 512 512;" xml:space="preserve">
<g>
	<g>
		<path d="M0,76v360h512V76H0z M482,406H30V106h452V406z"/>
	</g>
</g>
<g>
	<g>
		<rect x="301" y="346" width="151" height="30"/>
	</g>
</g>
<g>
	<g>
		<rect x="301" y="286" width="151" height="30"/>
	</g>
</g>
<g>
	<g>
		<rect x="301" y="226" width="151" height="30"/>
	</g>
</g>
<g>
	<g>
		<rect x="301" y="166" width="91" height="30"/>
	</g>
</g>
<g>
	<g>
		<rect x="422" y="166" width="30" height="30"/>
	</g>
</g>
<g>
	<g>
		<path d="M214.677,267.988C230.77,254.222,241,233.789,241,211c0-41.355-33.645-75-75-75s-75,33.645-75,75
			c0,22.789,10.23,43.222,26.323,56.988C83.871,285.566,61,320.66,61,361v15h210v-15C271,320.66,248.129,285.566,214.677,267.988z
			 M166,166c24.813,0,45,20.187,45,45s-20.187,45-45,45s-45-20.187-45-45S141.187,166,166,166z M92.507,346
			c6.97-34.191,37.274-60,73.493-60s66.523,25.809,73.493,60H92.507z"/>
	</g>
</g>
<g>
</g>
<g>
</g>
<g>
</g>
<g>
</g>
<g>
</g>
<g>
</g>
<g>
</g>
<g>
</g>
<g>
</g>
<g>
</g>
<g>
</g>
<g>
</g>
<g>
</g>
<g>
</g>
<g>
</g>
</svg>
