<svg width="334.5" height="334.5" xmlns="http://www.w3.org/2000/svg">

 <g>
  <title>background</title>
  <rect fill="none" id="canvas_background" height="402" width="582" y="-1" x="-1"/>
 </g>
 <g>
  <title>Layer 1</title>
  <path fill="#ffffff" id="svg_1" d="m332.797,13.699c-1.489,-1.306 -3.608,-1.609 -5.404,-0.776l-324.5,150.772c-1.747,0.812 -2.872,2.555 -2.893,4.481s1.067,3.693 2.797,4.542l91.833,45.068c1.684,0.827 3.692,0.64 5.196,-0.484l89.287,-66.734l-70.094,72.1c-1,1.029 -1.51,2.438 -1.4,3.868l6.979,90.889c0.155,2.014 1.505,3.736 3.424,4.367c0.513,0.168 1.04,0.25 1.561,0.25c1.429,0 2.819,-0.613 3.786,-1.733l48.742,-56.482l60.255,28.79c1.308,0.625 2.822,0.651 4.151,0.073c1.329,-0.579 2.341,-1.705 2.775,-3.087l84.978,-270.647c0.594,-1.89 0.015,-3.951 -1.473,-5.257z"/>
  <g id="svg_2"/>
  <g id="svg_3"/>
  <g id="svg_4"/>
  <g id="svg_5"/>
  <g id="svg_6"/>
  <g id="svg_7"/>
  <g id="svg_8"/>
  <g id="svg_9"/>
  <g id="svg_10"/>
  <g id="svg_11"/>
  <g id="svg_12"/>
  <g id="svg_13"/>
  <g id="svg_14"/>
  <g id="svg_15"/>
  <g id="svg_16"/>
 </g>
</svg>